<svg width="1531" height="333" viewBox="0 0 1531 333" fill="none" xmlns="http://www.w3.org/2000/svg">
<rect width="1531" height="333"/>
<g clip-path="url(#clip0_0_1)">
<path d="M301.461 5.99921L296.718 297.74H7.43911L12.1819 5.99921H301.461Z" stroke="white" stroke-width="12"/>
<path d="M325.106 34.9992L320.364 326.74H31.0843L35.8271 34.9992H325.106Z" stroke="white" stroke-width="12"/>
<path d="M169.794 256C160.461 256 150.544 254.75 140.044 252.25C129.544 249.75 119.627 246.333 110.294 242V210C131.961 221.667 151.294 227.5 168.294 227.5C176.794 227.5 183.627 225.667 188.794 222C194.127 218.333 196.794 213.167 196.794 206.5C196.794 201.833 195.294 197.917 192.294 194.75C189.461 191.417 185.877 188.75 181.544 186.75C177.211 184.583 171.044 182 163.044 179C152.211 175 143.377 171.167 136.544 167.5C129.711 163.833 123.877 158.667 119.044 152C114.211 145.167 111.794 136.417 111.794 125.75C111.794 110.083 117.211 97.9167 128.044 89.25C138.877 80.4167 153.711 76 172.544 76C181.377 76 190.044 77 198.544 79C207.044 80.8333 214.877 83.5833 222.044 87.25V118.5C205.211 109.167 188.961 104.5 173.294 104.5C164.627 104.5 157.794 106.083 152.794 109.25C147.961 112.25 145.544 116.583 145.544 122.25C145.544 127.917 148.044 132.417 153.044 135.75C158.211 138.917 166.127 142.417 176.794 146.25C187.961 150.417 197.127 154.417 204.294 158.25C211.461 162.083 217.627 167.667 222.794 175C228.127 182.167 230.961 191.5 231.294 203C231.294 219.5 225.711 232.5 214.544 242C203.377 251.333 188.461 256 169.794 256Z" fill="white"/>
<path d="M434.857 122.5H464.857V147H434.857V210C434.857 222.667 439.691 229 449.357 229C453.857 229 459.107 227.417 465.107 224.25V251.5C460.941 253 457.024 254.083 453.357 254.75C449.857 255.583 445.857 256 441.357 256C415.024 256 401.857 240.667 401.857 210V147H382.857V122.5H401.857V87.5L434.857 76V122.5ZM588.205 253L583.455 236C574.955 243.5 567.455 248.75 560.955 251.75C554.622 254.583 547.372 256 539.205 256C531.372 256 524.205 254.167 517.705 250.5C511.372 246.833 506.372 241.833 502.705 235.5C499.205 229 497.455 221.75 497.455 213.75V122.5H530.455V195C530.455 205.5 532.122 213.417 535.455 218.75C538.788 224.083 543.622 226.75 549.955 226.75C555.288 226.75 560.288 225.583 564.955 223.25C569.622 220.917 574.622 217.167 579.955 212V122.5H612.955V224L618.455 253H588.205ZM750.617 253L745.617 235.5C739.617 242 732.617 247 724.617 250.5C716.784 254 708.534 255.75 699.867 255.75C684.534 255.75 672.367 249.75 663.367 237.75C654.534 225.75 650.117 209.417 650.117 188.75C650.117 166.917 655.201 149.917 665.367 137.75C675.701 125.583 690.201 119.5 708.867 119.5C720.867 119.5 732.034 122.083 742.367 127.25V64.5H775.367V224L780.867 253H750.617ZM684.867 188.25C684.867 201.25 686.867 211.25 690.867 218.25C694.867 225.25 700.784 228.75 708.617 228.75C719.617 228.75 730.867 223.25 742.367 212.25V150.5C732.701 148 723.867 146.75 715.867 146.75C705.201 146.75 697.367 150.167 692.367 157C687.367 163.667 684.867 174.083 684.867 188.25ZM934.779 122.5L860.029 311H828.779L850.029 257.25L797.279 122.5H830.779L867.029 218L901.779 122.5H934.779ZM1065.67 162.5C1074.67 166.333 1081.51 171.75 1086.17 178.75C1090.84 185.75 1093.17 194.25 1093.17 204.25C1093.17 220.083 1087.42 232.167 1075.92 240.5C1064.42 248.833 1047.76 253 1025.92 253H961.672V79H1028.92C1047.76 79 1062.26 83 1072.42 91C1082.59 98.8333 1087.67 110.083 1087.67 124.75C1087.67 142.25 1080.34 154.833 1065.67 162.5ZM994.672 108V149.5H1025.92C1034.92 149.5 1041.67 147.667 1046.17 144C1050.67 140.333 1052.92 135 1052.92 128C1052.92 120.333 1050.92 115.083 1046.92 112.25C1043.09 109.417 1036.17 108 1026.17 108H994.672ZM1025.92 223.75C1037.76 223.75 1046.09 222.083 1050.92 218.75C1055.92 215.25 1058.42 209.333 1058.42 201C1058.42 193.167 1055.76 187.417 1050.42 183.75C1045.26 180.083 1037.17 178.25 1026.17 178.25H994.672V223.75H1025.92ZM1212.97 253L1209.72 237.25C1197.89 249.75 1183.64 256 1166.97 256C1153.8 256 1143.05 252.583 1134.72 245.75C1126.55 238.917 1122.47 229.917 1122.47 218.75C1122.47 204.25 1127.8 193 1138.47 185C1149.3 176.833 1164.89 172.75 1185.22 172.75C1192.55 172.75 1199.89 173.083 1207.22 173.75V169C1207.22 161.667 1205.14 156.25 1200.97 152.75C1196.8 149.083 1190.22 147.25 1181.22 147.25C1172.39 147.25 1164.14 148.75 1156.47 151.75C1148.97 154.583 1140.8 159.25 1131.97 165.75V136.25C1139.64 130.417 1147.64 126.167 1155.97 123.5C1164.3 120.833 1173.47 119.5 1183.47 119.5C1201.97 119.5 1216.05 123.5 1225.72 131.5C1235.55 139.333 1240.47 150.833 1240.47 166V224L1245.97 253H1212.97ZM1155.47 216.25C1155.47 225.917 1160.97 230.75 1171.97 230.75C1178.3 230.75 1184.3 229.5 1189.97 227C1195.64 224.333 1201.39 220.167 1207.22 214.5V196.75H1183.22C1173.55 196.75 1166.47 198.167 1161.97 201C1157.64 203.833 1155.47 208.917 1155.47 216.25ZM1316.24 256C1307.57 256 1299.07 254.833 1290.74 252.5C1282.41 250 1274.57 246.5 1267.24 242V210.75C1275.24 216.75 1282.82 221.167 1289.99 224C1297.16 226.833 1304.91 228.25 1313.24 228.25C1321.74 228.25 1327.99 227.167 1331.99 225C1336.16 222.833 1338.24 219.5 1338.24 215C1338.24 210.667 1336.24 207.5 1332.24 205.5C1328.41 203.333 1322.24 201.25 1313.74 199.25C1304.41 196.917 1296.82 194.583 1290.99 192.25C1285.16 189.75 1280.07 185.75 1275.74 180.25C1271.57 174.75 1269.49 167.333 1269.49 158C1269.49 146.333 1274.24 137 1283.74 130C1293.41 123 1306.32 119.5 1322.49 119.5C1330.32 119.5 1337.57 120.417 1344.24 122.25C1350.91 123.917 1357.74 126.75 1364.74 130.75V161.25C1357.57 156.25 1350.91 152.667 1344.74 150.5C1338.57 148.333 1331.99 147.25 1324.99 147.25C1317.32 147.25 1311.41 148.25 1307.24 150.25C1303.07 152.083 1300.99 154.833 1300.99 158.5C1300.99 162.167 1302.74 164.917 1306.24 166.75C1309.91 168.417 1315.66 170.167 1323.49 172C1332.82 174 1340.57 176.333 1346.74 179C1353.07 181.5 1358.49 185.667 1362.99 191.5C1367.49 197.167 1369.74 205.083 1369.74 215.25C1369.74 223.083 1367.49 230.167 1362.99 236.5C1358.49 242.667 1352.16 247.5 1343.99 251C1335.82 254.333 1326.57 256 1316.24 256ZM1518.49 197.75H1427.74C1429.07 207.75 1432.74 215.417 1438.74 220.75C1444.91 226.083 1453.07 228.75 1463.24 228.75C1470.74 228.75 1478.82 227.417 1487.49 224.75C1496.32 221.917 1504.49 218.083 1511.99 213.25H1512.99V240C1506.32 245.167 1498.66 249.167 1489.99 252C1481.49 254.667 1472.49 256 1462.99 256C1449.32 256 1437.41 253.25 1427.24 247.75C1417.07 242.25 1409.24 234.333 1403.74 224C1398.24 213.667 1395.49 201.583 1395.49 187.75C1395.49 174.25 1398.07 162.333 1403.24 152C1408.57 141.667 1415.99 133.667 1425.49 128C1434.99 122.333 1445.99 119.5 1458.49 119.5C1470.66 119.5 1481.24 122.25 1490.24 127.75C1499.41 133.25 1506.41 141.167 1511.24 151.5C1516.07 161.833 1518.49 173.917 1518.49 187.75V197.75ZM1458.49 146C1450.66 146 1444.07 148.583 1438.74 153.75C1433.57 158.917 1430.07 166.083 1428.24 175.25H1484.49C1483.16 165.75 1480.32 158.5 1475.99 153.5C1471.66 148.5 1465.82 146 1458.49 146Z" fill="white"/>
</g>
<defs>
<clipPath id="clip0_0_1">
<rect width="1531" height="333" fill="white"/>
</clipPath>
</defs>
</svg>
